<?xml version="1.0" standalone="no"?>
<!DOCTYPE svg PUBLIC "-//W3C//DTD SVG 20010904//EN"
 "http://www.w3.org/TR/2001/REC-SVG-20010904/DTD/svg10.dtd">
<svg version="1.0" xmlns="http://www.w3.org/2000/svg"
 width="460.000000pt" height="460.000000pt" viewBox="0 0 460.000000 460.000000"
 preserveAspectRatio="xMidYMid meet">

<g transform="translate(0.000000,460.000000) scale(0.100000,-0.100000)"
fill="#000000" stroke="none">
<path d="M10 2300 l0 -2290 2290 0 2290 0 0 2290 0 2290 -2290 0 -2290 0 0
-2290z m4535 0 l0 -2245 -2245 0 -2245 0 -3 2235 c-1 1229 0 2241 3 2248 3 10
458 12 2247 10 l2243 -3 0 -2245z"/>
<path d="M1849 1615 c-157 -58 -243 -225 -218 -425 21 -169 111 -272 257 -296
l42 -7 0 37 c0 25 -4 36 -15 36 -8 0 -22 11 -30 24 -14 21 -16 61 -13 286 l3
262 28 22 c35 28 38 76 5 75 -13 0 -39 -6 -59 -14z"/>
<path d="M1976 1623 c-3 -4 -6 -17 -6 -30 0 -17 9 -27 34 -37 40 -17 88 -78
112 -144 23 -63 38 -79 58 -62 23 18 23 252 1 270 -13 11 -20 9 -40 -10 -23
-22 -24 -22 -77 -5 -29 9 -58 18 -65 20 -6 2 -14 1 -17 -2z"/>
<path d="M2485 1621 c-145 -36 -235 -173 -235 -361 0 -197 94 -330 258 -365
30 -6 32 -5 32 23 0 20 -8 35 -22 44 -23 15 -23 16 -23 298 0 280 0 282 23
300 24 19 31 71 10 69 -7 -1 -26 -4 -43 -8z"/>
<path d="M2587 1624 c-14 -14 -6 -41 18 -62 l25 -22 0 -279 0 -280 -26 -20
c-17 -13 -24 -28 -22 -43 2 -19 8 -22 33 -20 44 5 126 45 158 78 142 143 142
423 1 568 -50 51 -166 101 -187 80z"/>
<path d="M3144 1609 c-147 -56 -232 -230 -206 -422 22 -165 118 -274 257 -294
45 -6 45 -5 45 24 0 21 -8 35 -30 51 l-30 23 0 265 0 266 30 28 c37 35 42 80
8 79 -13 0 -46 -9 -74 -20z"/>
<path d="M3280 1600 c0 -24 6 -32 34 -44 44 -18 92 -84 112 -152 15 -54 37
-73 60 -53 19 15 20 249 2 267 -17 17 -24 15 -47 -9 l-19 -20 -67 20 c-37 12
-69 21 -71 21 -2 0 -4 -13 -4 -30z"/>
<path d="M3781 1619 c-274 -79 -308 -569 -48 -693 29 -13 67 -27 85 -31 29 -6
32 -5 32 19 0 14 -11 36 -25 50 l-25 25 0 275 0 275 25 19 c15 12 25 30 25 46
0 29 -11 31 -69 15z"/>
<path d="M3890 1605 c0 -17 9 -34 25 -47 l25 -19 0 -275 0 -275 -25 -25 c-14
-14 -25 -36 -25 -50 0 -24 3 -25 33 -19 183 39 291 221 258 436 -25 159 -121
271 -253 294 -36 7 -38 6 -38 -20z"/>
<path d="M600 1611 c-35 -10 -37 -37 -3 -53 l28 -13 3 -274 c2 -231 0 -278
-13 -297 -8 -13 -15 -38 -15 -55 l0 -32 58 6 c92 8 167 55 191 120 7 17 11
125 11 275 0 136 4 252 8 258 4 6 15 13 25 17 25 9 21 43 -5 51 -31 8 -257 6
-288 -3z"/>
<path d="M1195 1591 c-4 -19 10 -102 39 -234 25 -112 46 -207 46 -210 0 -3
-26 -7 -57 -9 -55 -3 -58 -4 -61 -30 l-3 -28 69 0 70 0 11 -46 c11 -42 10 -49
-9 -68 -11 -12 -20 -30 -20 -39 0 -15 17 -17 159 -17 173 0 191 6 148 46 -25
23 -64 165 -143 519 -14 66 -31 126 -36 133 -7 8 -42 12 -108 12 l-98 0 -7
-29z"/>
<path d="M1156 1450 c-3 -8 -31 -107 -61 -220 -31 -113 -63 -215 -71 -227 -8
-13 -28 -30 -45 -38 -19 -10 -29 -22 -27 -33 3 -14 18 -17 101 -20 84 -2 98 0
104 14 6 16 -1 24 -43 50 -26 15 -21 52 31 234 45 161 49 196 25 240 -8 13 -9
13 -14 0z"/>
<path d="M439 1162 c-73 -36 -88 -126 -32 -193 27 -32 93 -68 126 -69 26 0 23
50 -3 57 -26 7 -26 20 0 28 30 9 52 49 52 91 0 27 -7 44 -28 64 -39 37 -72 43
-115 22z"/>
<path d="M2143 1098 c-6 -7 -13 -22 -17 -34 -3 -11 -20 -34 -36 -51 -27 -28
-48 -39 -102 -57 -22 -7 -24 -54 -4 -62 20 -8 105 31 139 64 37 34 69 97 65
125 -3 25 -30 34 -45 15z"/>
<path d="M3442 1078 c-29 -54 -75 -98 -117 -112 -31 -11 -41 -20 -43 -40 -4
-34 16 -41 62 -22 86 36 165 130 152 181 -9 34 -34 31 -54 -7z"/>
<path d="M467 823 c-4 -3 -7 -85 -7 -181 l0 -174 -30 -11 c-18 -7 -30 -19 -30
-29 0 -27 51 -23 78 5 21 22 22 32 22 210 0 149 -3 187 -13 187 -8 0 -17 -3
-20 -7z"/>
<path d="M1361 812 c-19 -9 -48 -34 -64 -54 -24 -30 -29 -46 -29 -88 0 -63 37
-125 87 -146 74 -31 195 -8 195 36 0 24 -3 24 -60 4 -112 -39 -209 48 -166
150 20 48 65 70 130 63 28 -2 59 -8 69 -12 13 -6 17 -2 17 17 0 20 -7 27 -39
36 -54 17 -100 15 -140 -6z"/>
<path d="M1986 815 c-3 -9 -6 -34 -6 -56 0 -38 -1 -39 -36 -39 -46 0 -70 -14
-89 -50 -45 -88 11 -160 124 -160 l52 0 -3 157 c-3 136 -5 158 -19 161 -9 2
-19 -4 -23 -13z m-8 -197 l3 -68 -34 0 c-42 0 -61 21 -61 67 0 41 34 76 68 71
19 -3 21 -11 24 -70z"/>
<path d="M2514 812 c-61 -29 -89 -74 -89 -144 0 -63 19 -97 75 -136 37 -25
114 -30 169 -11 24 8 31 17 31 36 0 20 -4 24 -17 18 -118 -48 -213 -4 -213 99
0 32 7 45 37 73 34 33 39 34 92 30 31 -2 66 -8 79 -12 18 -6 22 -4 22 13 0 46
-116 66 -186 34z"/>
<path d="M578 709 c-10 -5 -18 -19 -18 -29 0 -22 10 -26 27 -9 19 19 68 7 71
-18 2 -16 -3 -23 -26 -28 -58 -12 -94 -75 -59 -103 16 -13 145 -13 154 1 3 5
-2 14 -11 19 -12 7 -16 24 -16 77 0 53 -4 72 -18 84 -21 19 -77 22 -104 6z
m80 -131 c-2 -25 -8 -34 -26 -36 -33 -5 -41 26 -13 50 33 26 43 22 39 -14z"/>
<path d="M729 697 c28 -74 85 -187 93 -185 9 3 88 180 88 198 0 5 -8 10 -19
10 -14 0 -25 -16 -41 -60 -12 -33 -24 -60 -26 -60 -3 0 -17 26 -32 58 -20 41
-34 58 -50 60 -20 3 -21 1 -13 -21z"/>
<path d="M948 706 c-10 -7 -18 -21 -18 -31 0 -13 5 -15 18 -9 9 4 31 8 47 8
23 1 31 -4 33 -21 2 -16 -3 -23 -26 -28 -58 -12 -94 -75 -59 -103 16 -13 145
-13 154 1 3 5 -2 14 -11 19 -12 7 -16 24 -16 77 0 53 -4 72 -18 84 -22 20 -80
22 -104 3z m80 -128 c-2 -25 -8 -34 -26 -36 -33 -5 -41 26 -13 50 33 26 43 22
39 -14z"/>
<path d="M1646 705 c-42 -23 -55 -45 -56 -93 -1 -115 161 -143 206 -37 37 90
-63 177 -150 130z m92 -41 c27 -18 30 -69 5 -96 -21 -24 -68 -23 -93 2 -58 58
20 142 88 94z"/>
<path d="M2099 691 c-24 -24 -29 -38 -29 -76 0 -64 39 -105 100 -105 52 0 80
15 80 41 0 16 -4 19 -17 14 -43 -19 -81 -17 -102 4 -34 34 -26 41 49 41 l70 0
0 29 c0 41 -43 81 -87 81 -25 0 -43 -8 -64 -29z m96 -21 c24 -27 17 -32 -41
-28 l-49 3 23 23 c27 27 44 28 67 2z"/>
<path d="M2802 705 c-44 -20 -67 -73 -52 -121 29 -87 147 -102 193 -24 54 91
-42 190 -141 145z m98 -47 c25 -28 26 -62 0 -88 -41 -41 -112 -13 -112 45 0
59 71 86 112 43z"/>
<path d="M2980 717 c0 -15 88 -201 96 -204 9 -3 94 180 94 201 0 3 -8 6 -19 6
-13 0 -26 -18 -46 -62 l-28 -63 -28 63 c-22 46 -34 62 -49 62 -11 0 -20 -2
-20 -3z"/>
<path d="M3209 691 c-33 -34 -39 -83 -14 -131 19 -37 43 -50 90 -50 46 0 75
15 75 39 0 17 -4 18 -34 9 -45 -14 -80 -4 -94 27 l-12 25 76 0 c65 0 75 2 70
16 -3 9 -6 22 -6 30 0 8 -11 26 -25 39 -35 36 -88 34 -126 -4z m95 -17 c26
-25 19 -34 -29 -34 -25 0 -45 4 -45 9 0 14 30 41 45 41 7 0 21 -7 29 -16z"/>
<path d="M3410 615 c0 -98 1 -105 20 -105 18 0 20 7 20 58 0 79 16 107 60 105
38 -2 55 14 38 34 -14 18 -53 16 -68 -2 -7 -8 -16 -15 -21 -15 -5 0 -9 7 -9
15 0 8 -9 15 -20 15 -19 0 -20 -7 -20 -105z"/>
<path d="M3598 709 c-10 -5 -18 -19 -18 -29 0 -22 10 -26 27 -9 6 6 23 9 39 7
40 -4 46 -43 8 -52 -47 -12 -74 -36 -74 -66 0 -39 16 -48 93 -48 68 1 94 13
63 30 -12 7 -16 24 -16 78 0 60 -3 71 -22 84 -25 18 -74 20 -100 5z m80 -131
c-2 -25 -8 -34 -26 -36 -33 -5 -41 26 -13 50 33 26 43 22 39 -14z"/>
<path d="M3830 713 c-50 -19 -66 -77 -31 -112 17 -17 18 -21 5 -32 -8 -7 -12
-19 -9 -27 3 -8 -4 -24 -15 -34 -46 -43 -2 -98 79 -98 59 0 91 21 91 60 0 33
-25 54 -77 65 -41 8 -43 33 -4 41 45 9 65 37 58 79 -5 30 -3 35 13 35 13 0 17
5 14 15 -5 11 -21 15 -58 14 -28 0 -58 -3 -66 -6z m55 -68 c0 -27 -3 -30 -30
-30 -21 0 -31 5 -33 18 -6 33 6 49 35 45 24 -3 28 -8 28 -33z m16 -161 c11
-14 10 -18 -6 -30 -32 -24 -95 -10 -95 21 0 27 79 35 101 9z"/>
<path d="M4019 707 c-26 -20 -39 -53 -39 -97 0 -33 6 -48 30 -72 28 -28 35
-30 82 -26 48 5 72 21 64 43 -2 6 -10 8 -17 6 -61 -18 -119 -1 -119 34 0 12
15 15 71 15 l72 0 -7 32 c-9 48 -43 78 -85 78 -20 0 -43 -6 -52 -13z m79 -33
c34 -24 26 -34 -28 -34 -27 0 -50 4 -50 9 0 10 39 41 50 41 3 0 16 -7 28 -16z"/>
</g>
</svg>
